# xmcd
#
# Track frame offsets: 
#        182
#        17070
#        39657
#        52922
#        67357
#        86412
#        107225
#        120977
#        137750
#
# Disc length: 2131 seconds
#
# Revision: 2
# Processed by: cddbd v1.5.2PL0 Copyright (c) Steve Scherf et al.
# Submitted via: ExactAudioCopy v1.0b3
#
DISCID=77085109
DTITLE=Various Artist - Get the Blues!
DYEAR=1998
DGENRE=Blues
TTITLE0=Luther Allison - Low Down and Dirty
TTITLE1=Long John Hunter - Both Ends of the Road
TTITLE2=Steady Rollin' Bob Margolin - Up and In
TTITLE3=Corey Harris - High Fever Blues
TTITLE4=Tinsley Ellis - Diggin' My Own Grave
TTITLE5=Carey Bell - Hard Working Woman
TTITLE6=Dave Hole - Hawaiian Boogie
TTITLE7=Anson Funderburgh and Sam Myers - Don't Quit the One You Love fo
TTITLE7=r Me
TTITLE8=Bobby Radcliff - The Introject
EXTD=1998 Alligator Records and Artist Mgmt., Inc.\nP.O. Box 60234\nChic
EXTD=ago, IL 60660\nALCO 1202
EXTT0=Luther Allison
EXTT1=Long John Hunter
EXTT2=Steady Rollin' Bob Margolin
EXTT3=Corey Harris
EXTT4=Tinsley Ellis
EXTT5=Carey Bell
EXTT6=Dave Hole
EXTT7=Anson Funderburgh and Sam Myers
EXTT8=Bobby Radcliff
PLAYORDER=
